<svg width="24" height="38" fill="none" xmlns="http://www.w3.org/2000/svg"><path d="M16.993 6.373h-1.33a.334.334 0 00-.333.33v8.766c0 1.825-1.482 3.292-3.326 3.292-1.845 0-3.326-1.466-3.326-3.292V6.702a.333.333 0 00-.333-.329h-1.33a.334.334 0 00-.333.33v8.766c0 2.873 2.328 5.207 5.231 5.266h.242c2.872-.06 5.23-2.393 5.23-5.266V6.702a.392.392 0 00-.392-.329z" fill="#000"/><path d="M23.463.12H.574a.411.411 0 00-.423.419V37.58c0 .24.182.419.423.419h22.89c.241 0 .423-.18.423-.419V.54a.411.411 0 00-.424-.42zM2.086 2.454v-.21c0-.12.091-.24.242-.24H21.77c.121 0 .242.09.242.24V19.39l-9.645 9.545-.152.15a.24.24 0 01-.332 0l-.151-.15-9.646-9.545V2.454zm19.866 33.212v.21c0 .12-.091.239-.242.239H2.298a.237.237 0 01-.242-.24V22.083l9.645 9.545c.152.15.424.15.605 0l9.646-9.545v13.584z" fill="#000"/></svg>